#!OML:ASF F:\VICON\USERDATA\INSTALL\rory3\rory3.ASF
:FULLY-SPECIFIED
:DEGREES
1
root 0.474991 18.983 -2.39486 2.64613 -3.22105 1.54037
lowerback 4.07383 0.7413 -2.93966
upperback -0.137785 0.804692 -1.6542
thorax -2.44333 0.427393 -0.101421
lowerneck -9.68683 -2.51437 -8.84509
upperneck 9.63288 -3.26149 9.86907
head 4.77812 -1.3369 4.30062
rclavicle -1.29955e-014 -9.54166e-015
rhumerus -34.0505 -4.52994 -79.8536
rradius 28.1992
rwrist 18.4018
rhand -21.7323 -0.491467
rfingers 7.12502
rthumb 4.66723 -30.4201
lclavicle -1.29955e-014 -9.54166e-015
lhumerus -36.3353 18.9641 71.678
lradius 25.8672
lwrist -3.17092
lhand -17.8692 26.2972
lfingers 7.12502
lthumb 8.39661 56.1103
rfemur -3.48976 21.1763 16.9078
rtibia 15.1114
rfoot -14.1729 -19.1368
rtoes -1.51364
lfemur -2.00929 -7.29392 -20.9379
ltibia 11.6808
lfoot -11.8011 17.0547
ltoes -3.86957
2
root 0.474784 18.9825 -2.40019 2.6763 -3.22552 1.47024
lowerback 4.11991 0.745575 -2.88352
upperback -0.115312 0.812449 -1.62805
thorax -2.44576 0.43059 -0.106829
lowerneck -9.59341 -2.49946 -8.79383
upperneck 9.497 -3.23919 9.80419
head 4.71682 -1.33096 4.27224
rclavicle -5.36719e-015 1.03368e-014
rhumerus -34.0386 -4.46663 -79.8987
rradius 28.3091
rwrist 18.2672
rhand -21.5475 -0.353842
rfingers 7.12502
rthumb 4.84573 -30.2784
lclavicle -5.36719e-015 1.03368e-014
lhumerus -36.1843 18.5899 71.8738
lradius 25.7505
lwrist -2.62386
lhand -18.0357 26.0322
lfingers 7.12502
lthumb 8.2359 55.8516
rfemur -3.51363 21.1866 16.9659
rtibia 15.0461
rfoot -14.1403 -19.1453
rtoes -1.55114
lfemur -2.18344 -7.26149 -20.851
ltibia 11.9166
lfoot -11.8599 17.0197
ltoes -3.91293
3
root 0.474444 18.9824 -2.40664 2.71935 -3.26368 1.39805
lowerback 4.20941 0.790002 -2.81551
upperback -0.130076 0.870863 -1.62316
thorax -2.51138 0.459574 -0.145026
lowerneck -9.50257 -2.49815 -8.77381
upperneck 9.44059 -3.24822 9.8451
head 4.68551 -1.33486 4.28121
rclavicle -4.91992e-015 -4.77083e-015
rhumerus -34.0933 -4.46075 -79.9376
rradius 28.394
rwrist 18.2246
rhand -21.6075 -0.326583
rfingers 7.12502
rthumb 4.78777 -30.2525
lclavicle -4.91992e-015 -4.77083e-015
lhumerus -36.1219 18.3353 71.9459
lradius 25.6485
lwrist -2.38416
lhand -18.3548 25.7545
lfingers 7.12502
lthumb 7.92789 55.5858
rfemur -3.60345 21.2744 17.0167
rtibia 15.0687
rfoot -14.1485 -19.1892
rtoes -1.44366
lfemur -2.28385 -7.25567 -20.7604
ltibia 11.9886
lfoot -11.8984 16.9854
ltoes -3.69681
4
root 0.475485 18.9834 -2.41079 2.74122 -3.27345 1.39855
lowerback 4.27139 0.808754 -2.81106
upperback -0.0966598 0.894478 -1.62133
thorax -2.51216 0.471066 -0.147734
lowerneck -9.51894 -2.48979 -8.82492
upperneck 9.40204 -3.23403 9.9154
head 4.67711 -1.32543 4.31282
rclavicle 1.39149e-015 1.19271e-014
rhumerus -34.0438 -4.47277 -79.9451
rradius 28.4338
rwrist 18.2214
rhand -21.7509 -0.438825
rfingers 7.12502
rthumb 4.64929 -30.3678
lclavicle 1.39149e-015 1.19271e-014
lhumerus -36.0433 18.3214 71.9749
lradius 25.6373
lwrist -2.38036
lhand -18.5623 25.6883
lfingers 7.12502
lthumb 7.72762 55.5271
rfemur -3.67039 21.2877 16.9941
rtibia 15.0977
rfoot -14.1454 -19.1571
rtoes -1.40931
lfemur -2.37167 -7.22316 -20.7576
ltibia 12.0756
lfoot -11.9011 16.9552
ltoes -3.73315
5
root 0.479555 18.9834 -2.4126 2.76852 -3.24437 1.46723
lowerback 4.27263 0.79217 -2.84007
upperback -0.0190177 0.872606 -1.64355
thorax -2.43259 0.459142 -0.152092
lowerneck -9.65462 -2.51008 -8.77839
upperneck 9.38175 -3.24989 9.85645
head 4.69374 -1.33157 4.28428
rclavicle 1.88348e-014 -3.57812e-015
rhumerus -33.9256 -4.41277 -79.9879
rradius 28.4736
rwrist 18.1745
rhand -21.9809 -0.523375
rfingers 7.12502
rthumb 4.42724 -30.4571
lclavicle 1.88348e-014 -3.57812e-015
lhumerus -35.9274 18.3437 72.0108
lradius 25.6931
lwrist -2.31282
lhand -18.5155 25.3321
lfingers 7.12502
lthumb 7.77281 55.1692
rfemur -3.75792 21.195 16.8828
rtibia 15.182
rfoot -14.1814 -19.0754
rtoes -1.33049
lfemur -2.43178 -7.24095 -20.8438
ltibia 12.1191
lfoot -11.9318 16.9605
ltoes -3.73542
6
root 0.481931 18.982 -2.41638 2.79314 -3.25247 1.46542
lowerback 4.30395 0.784611 -2.81661
upperback 0.0518598 0.864217 -1.65418
thorax -2.37649 0.453641 -0.175295
lowerneck -9.80888 -2.52912 -8.63768
upperneck 9.36817 -3.26686 9.71122
head 4.71269 -1.33946 4.21241
rclavicle 9.34288e-015 -6.75868e-015
rhumerus -33.8478 -4.43719 -80.0219
rradius 28.5433
rwrist 18.2221
rhand -22.089 -0.328666
rfingers 7.12502
rthumb 4.32282 -30.2645
lclavicle 9.34288e-015 -6.75868e-015
lhumerus -35.848 18.4058 71.9873
lradius 25.8228
lwrist -2.37557
lhand -17.9966 25.4524
lfingers 7.12502
lthumb 8.27358 55.2704
rfemur -3.87064 21.1319 16.8543
rtibia 15.3148
rfoot -14.1544 -19.0239
rtoes -1.25708
lfemur -2.47706 -7.23287 -20.8469
ltibia 12.1299
lfoot -11.9415 16.9818
ltoes -3.77509
7
root 0.483129 18.98 -2.419 2.76443 -3.26879 1.53719
lowerback 4.37461 0.801514 -2.87827
upperback 0.110292 0.881873 -1.67315
thorax -2.35696 0.462432 -0.161885
lowerneck -9.88236 -2.5105 -8.62495
upperneck 9.40783 -3.23962 9.70336
head 4.73424 -1.32402 4.20984
rclavicle 8.59744e-015 -3.29983e-014
rhumerus -33.8302 -4.37494 -80.0577
rradius 28.6188
rwrist 18.0681
rhand -22.1449 -0.191553
rfingers 7.12502
rthumb 4.26886 -30.1285
lclavicle 8.59744e-015 -3.29983e-014
lhumerus -35.7933 18.4157 72.0037
lradius 25.9833
lwrist -2.57113
lhand -17.4941 26.5855
lfingers 7.12502
lthumb 8.75855 56.3838
rfemur -3.94301 21.0986 16.7697
rtibia 15.4854
rfoot -14.1102 -18.9929
rtoes -1.06694
lfemur -2.47084 -7.18614 -20.9323
ltibia 12.1371
lfoot -11.9297 16.941
ltoes -3.77229
8
root 0.484741 18.9786 -2.42152 2.76575 -3.23678 1.63895
lowerback 4.43887 0.79413 -2.96787
upperback 0.129355 0.864798 -1.69098
thorax -2.37417 0.45483 -0.129773
lowerneck -9.8238 -2.46826 -8.7501
upperneck 9.35515 -3.18185 9.84828
head 4.70702 -1.29343 4.2811
rclavicle 1.67476e-014 -3.18055e-015
rhumerus -33.8467 -4.31384 -80.0698
rradius 28.6766
rwrist 17.9895
rhand -22.0793 -0.16171
rfingers 7.12502
rthumb 4.33221 -30.0974
lclavicle 1.67476e-014 -3.18055e-015
lhumerus -35.8248 18.4672 71.973
lradius 26.046
lwrist -2.63669
lhand -17.6316 26.8512
lfingers 7.12502
lthumb 8.62583 56.655
rfemur -4.0494 21.1106 16.6458
rtibia 15.6675
rfoot -14.218 -18.9922
rtoes -0.753979
lfemur -2.53149 -7.14441 -21.0402
ltibia 12.1986
lfoot -11.8846 16.8279
ltoes -3.70421
9
root 0.487344 18.9767 -2.42567 2.76327 -3.19802 1.74477
lowerback 4.56942 0.773569 -3.10379
upperback 0.117568 0.824271 -1.68255
thorax -2.46087 0.437141 -0.0444718
lowerneck -9.76609 -2.41781 -8.83904
upperneck 9.32571 -3.11304 9.93642
head 4.68432 -1.25934 4.32919
rclavicle -5.76476e-015 1.94809e-014
rhumerus -33.8966 -4.11359 -80.0865
rradius 28.7165
rwrist 17.8486
rhand -22.0989 -0.0293883
rfingers 7.12502
rthumb 4.31329 -29.9655
lclavicle -5.76476e-015 1.94809e-014
lhumerus -35.8687 18.41 72.0086
lradius 26.0409
lwrist -2.45452
lhand -17.8234 26.2876
lfingers 7.12502
lthumb 8.44077 56.099
rfemur -4.15545 21.0479 16.5175
rtibia 15.8593
rfoot -14.3458 -18.9781
rtoes -0.636488
lfemur -2.59198 -7.08698 -21.1589
ltibia 12.2729
lfoot -11.8726 16.7162
ltoes -3.6496
10
root 0.488054 18.9753 -2.4302 2.78369 -3.2239 1.74975
lowerback 4.66979 0.788958 -3.14152
upperback 0.1183 0.838738 -1.65897
thorax -2.51766 0.445484 -0.00157076
lowerneck -9.65969 -2.4016 -8.94159
upperneck 9.24117 -3.08848 10.0208
head 4.64104 -1.24922 4.37472
rclavicle 5.96354e-016 1.35174e-014
rhumerus -33.9049 -4.0209 -80.0794
rradius 28.7201
rwrist 17.777
rhand -22.0925 0.186445
rfingers 7.12502
rthumb 4.31949 -29.7495
lclavicle 5.96354e-016 1.35174e-014
lhumerus -35.834 18.1004 72.164
lradius 26.0658
lwrist -2.12751
lhand -18.0201 26.0332
lfingers 7.12502
lthumb 8.25093 55.8521
rfemur -4.29947 21.0286 16.4887
rtibia 16.0596
rfoot -14.4209 -18.9063
rtoes -0.558752
lfemur -2.66747 -6.99416 -21.154
ltibia 12.3662
lfoot -11.9728 16.5918
ltoes -3.29085
11
root 0.488502 18.974 -2.43363 2.82134 -3.23668 1.78231
lowerback 4.69051 0.787188 -3.19734
upperback 0.149827 0.833665 -1.64845
thorax -2.49766 0.443191 0.0408403
lowerneck -9.60452 -2.38313 -8.96233
upperneck 9.17342 -3.05555 9.98067
head 4.60752 -1.23786 4.36739
rclavicle 1.28216e-014 -5.96354e-015
rhumerus -33.7869 -3.98184 -80.0812
rradius 28.6337
rwrist 17.7528
rhand -22.184 0.0964716
rfingers 7.12502
rthumb 4.23111 -29.8413
lclavicle 1.28216e-014 -5.96354e-015
lhumerus -35.8169 17.8848 72.2844
lradius 26.1488
lwrist -1.86672
lhand -18.1738 25.9834
lfingers 7.12502
lthumb 8.1026 55.808
rfemur -4.46231 20.9883 16.4218
rtibia 16.251
rfoot -14.5046 -18.8468
rtoes -0.50753
lfemur -2.79875 -6.95372 -21.178
ltibia 12.5224
lfoot -12.0813 16.5132
ltoes -3.26408
12
root 0.487628 18.9719 -2.43802 2.79955 -3.23906 1.8151
lowerback 4.81088 0.810826 -3.26422
upperback 0.207051 0.857598 -1.64909
thorax -2.5078 0.455486 0.0747492
lowerneck -9.72757 -2.39049 -8.92714
upperneck 9.24672 -3.06182 9.94516
head 4.65015 -1.2382 4.34993
rclavicle -1.19271e-015 -1.31198e-014
rhumerus -33.6962 -3.95159 -80.094
rradius 28.6142
rwrist 17.7057
rhand -22.1532 -0.0696993
rfingers 7.12502
rthumb 4.26088 -30.0068
lclavicle -1.19271e-015 -1.31198e-014
lhumerus -35.7403 17.9288 72.2467
lradius 26.1317
lwrist -1.97807
lhand -18.0118 25.9307
lfingers 7.12502
lthumb 8.25894 55.7492
rfemur -4.57377 20.9764 16.3897
rtibia 16.4527
rfoot -14.5495 -18.8635
rtoes -0.625718
lfemur -2.90857 -6.89065 -21.211
ltibia 12.7339
lfoot -12.1231 16.4675
ltoes -3.11777
